<svg xmlns="http://www.w3.org/2000/svg" xmlns:xlink="http://www.w3.org/1999/xlink" width="1080" zoomAndPan="magnify" viewBox="0 0 810 809.999993" height="1080" preserveAspectRatio="xMidYMid meet" version="1.0"><defs><clipPath id="4ef733960b"><path d="M 565 251 L 593 251 L 593 285 L 565 285 Z M 565 251 " clip-rule="nonzero"/></clipPath><clipPath id="790c8d02e0"><path d="M 448.886719 241.417969 L 637.214844 257.347656 L 609.90625 580.195312 L 421.578125 564.265625 Z M 448.886719 241.417969 " clip-rule="nonzero"/></clipPath><clipPath id="9a0919d451"><path d="M 448.886719 241.417969 L 637.214844 257.347656 L 609.90625 580.195312 L 421.578125 564.265625 Z M 448.886719 241.417969 " clip-rule="nonzero"/></clipPath><clipPath id="71eae2f9b9"><path d="M 448.886719 241.417969 L 637.214844 257.347656 L 609.90625 580.195312 L 421.578125 564.265625 Z M 448.886719 241.417969 " clip-rule="nonzero"/></clipPath><clipPath id="490808ef06"><path d="M 445 271 L 578 271 L 578 558 L 445 558 Z M 445 271 " clip-rule="nonzero"/></clipPath><clipPath id="ce61ad37cd"><path d="M 448.886719 241.417969 L 637.214844 257.347656 L 609.90625 580.195312 L 421.578125 564.265625 Z M 448.886719 241.417969 " clip-rule="nonzero"/></clipPath><clipPath id="64d8745cc7"><path d="M 448.886719 241.417969 L 637.214844 257.347656 L 609.90625 580.195312 L 421.578125 564.265625 Z M 448.886719 241.417969 " clip-rule="nonzero"/></clipPath><clipPath id="ea579c8922"><path d="M 448.886719 241.417969 L 637.214844 257.347656 L 609.90625 580.195312 L 421.578125 564.265625 Z M 448.886719 241.417969 " clip-rule="nonzero"/></clipPath><clipPath id="5c88fad433"><path d="M 515 293 L 623 293 L 623 378 L 515 378 Z M 515 293 " clip-rule="nonzero"/></clipPath><clipPath id="1769aca917"><path d="M 448.886719 241.417969 L 637.214844 257.347656 L 609.90625 580.195312 L 421.578125 564.265625 Z M 448.886719 241.417969 " clip-rule="nonzero"/></clipPath><clipPath id="acda768f66"><path d="M 448.886719 241.417969 L 637.214844 257.347656 L 609.90625 580.195312 L 421.578125 564.265625 Z M 448.886719 241.417969 " clip-rule="nonzero"/></clipPath><clipPath id="183370d980"><path d="M 448.886719 241.417969 L 637.214844 257.347656 L 609.90625 580.195312 L 421.578125 564.265625 Z M 448.886719 241.417969 " clip-rule="nonzero"/></clipPath><clipPath id="fb8cfc15c0"><path d="M 509 373 L 594 373 L 594 549 L 509 549 Z M 509 373 " clip-rule="nonzero"/></clipPath><clipPath id="2967983a37"><path d="M 448.886719 241.417969 L 637.214844 257.347656 L 609.90625 580.195312 L 421.578125 564.265625 Z M 448.886719 241.417969 " clip-rule="nonzero"/></clipPath><clipPath id="56d398e2a1"><path d="M 448.886719 241.417969 L 637.214844 257.347656 L 609.90625 580.195312 L 421.578125 564.265625 Z M 448.886719 241.417969 " clip-rule="nonzero"/></clipPath><clipPath id="ed5ec14515"><path d="M 448.886719 241.417969 L 637.214844 257.347656 L 609.90625 580.195312 L 421.578125 564.265625 Z M 448.886719 241.417969 " clip-rule="nonzero"/></clipPath><clipPath id="828dffcc5b"><path d="M 482 551 L 580 551 L 580 577 L 482 577 Z M 482 551 " clip-rule="nonzero"/></clipPath><clipPath id="697b252f9b"><path d="M 448.886719 241.417969 L 637.214844 257.347656 L 609.90625 580.195312 L 421.578125 564.265625 Z M 448.886719 241.417969 " clip-rule="nonzero"/></clipPath><clipPath id="fe14ffa4c9"><path d="M 448.886719 241.417969 L 637.214844 257.347656 L 609.90625 580.195312 L 421.578125 564.265625 Z M 448.886719 241.417969 " clip-rule="nonzero"/></clipPath><clipPath id="51a37f4936"><path d="M 448.886719 241.417969 L 637.214844 257.347656 L 609.90625 580.195312 L 421.578125 564.265625 Z M 448.886719 241.417969 " clip-rule="nonzero"/></clipPath><clipPath id="fbb60a94df"><path d="M 548 345 L 603 345 L 603 407 L 548 407 Z M 548 345 " clip-rule="nonzero"/></clipPath><clipPath id="daeaa670ae"><path d="M 448.886719 241.417969 L 637.214844 257.347656 L 609.90625 580.195312 L 421.578125 564.265625 Z M 448.886719 241.417969 " clip-rule="nonzero"/></clipPath><clipPath id="bcde2ba778"><path d="M 448.886719 241.417969 L 637.214844 257.347656 L 609.90625 580.195312 L 421.578125 564.265625 Z M 448.886719 241.417969 " clip-rule="nonzero"/></clipPath><clipPath id="a03b1412ca"><path d="M 448.886719 241.417969 L 637.214844 257.347656 L 609.90625 580.195312 L 421.578125 564.265625 Z M 448.886719 241.417969 " clip-rule="nonzero"/></clipPath><clipPath id="071a523b44"><path d="M 551 348 L 600 348 L 600 404 L 551 404 Z M 551 348 " clip-rule="nonzero"/></clipPath><clipPath id="4dad96bc6b"><path d="M 448.886719 241.417969 L 637.214844 257.347656 L 609.90625 580.195312 L 421.578125 564.265625 Z M 448.886719 241.417969 " clip-rule="nonzero"/></clipPath><clipPath id="883cbf2ff6"><path d="M 448.886719 241.417969 L 637.214844 257.347656 L 609.90625 580.195312 L 421.578125 564.265625 Z M 448.886719 241.417969 " clip-rule="nonzero"/></clipPath><clipPath id="cc2da61cc5"><path d="M 448.886719 241.417969 L 637.214844 257.347656 L 609.90625 580.195312 L 421.578125 564.265625 Z M 448.886719 241.417969 " clip-rule="nonzero"/></clipPath><clipPath id="e5ca1b23a0"><path d="M 560 344 L 582 344 L 582 357 L 560 357 Z M 560 344 " clip-rule="nonzero"/></clipPath><clipPath id="bf3c898ef4"><path d="M 448.886719 241.417969 L 637.214844 257.347656 L 609.90625 580.195312 L 421.578125 564.265625 Z M 448.886719 241.417969 " clip-rule="nonzero"/></clipPath><clipPath id="3edb8ac8ca"><path d="M 448.886719 241.417969 L 637.214844 257.347656 L 609.90625 580.195312 L 421.578125 564.265625 Z M 448.886719 241.417969 " clip-rule="nonzero"/></clipPath><clipPath id="c08e372ffe"><path d="M 448.886719 241.417969 L 637.214844 257.347656 L 609.90625 580.195312 L 421.578125 564.265625 Z M 448.886719 241.417969 " clip-rule="nonzero"/></clipPath><clipPath id="98f5bb03bc"><path d="M 555 253 L 628 253 L 628 393 L 555 393 Z M 555 253 " clip-rule="nonzero"/></clipPath><clipPath id="bec75802db"><path d="M 448.886719 241.417969 L 637.214844 257.347656 L 609.90625 580.195312 L 421.578125 564.265625 Z M 448.886719 241.417969 " clip-rule="nonzero"/></clipPath><clipPath id="da836f52ef"><path d="M 448.886719 241.417969 L 637.214844 257.347656 L 609.90625 580.195312 L 421.578125 564.265625 Z M 448.886719 241.417969 " clip-rule="nonzero"/></clipPath><clipPath id="10d56cedc7"><path d="M 448.886719 241.417969 L 637.214844 257.347656 L 609.90625 580.195312 L 421.578125 564.265625 Z M 448.886719 241.417969 " clip-rule="nonzero"/></clipPath><clipPath id="d4b519e603"><path d="M 575 305 L 602 305 L 602 548 L 575 548 Z M 575 305 " clip-rule="nonzero"/></clipPath><clipPath id="758ecc4791"><path d="M 448.886719 241.417969 L 637.214844 257.347656 L 609.90625 580.195312 L 421.578125 564.265625 Z M 448.886719 241.417969 " clip-rule="nonzero"/></clipPath><clipPath id="373a1b53d7"><path d="M 448.886719 241.417969 L 637.214844 257.347656 L 609.90625 580.195312 L 421.578125 564.265625 Z M 448.886719 241.417969 " clip-rule="nonzero"/></clipPath><clipPath id="ceb65a55b8"><path d="M 448.886719 241.417969 L 637.214844 257.347656 L 609.90625 580.195312 L 421.578125 564.265625 Z M 448.886719 241.417969 " clip-rule="nonzero"/></clipPath><clipPath id="c3243d943a"><path d="M 560 264 L 564 264 L 564 270 L 560 270 Z M 560 264 " clip-rule="nonzero"/></clipPath><clipPath id="26e4b6cb4e"><path d="M 448.886719 241.417969 L 637.214844 257.347656 L 609.90625 580.195312 L 421.578125 564.265625 Z M 448.886719 241.417969 " clip-rule="nonzero"/></clipPath><clipPath id="33b3cf6032"><path d="M 448.886719 241.417969 L 637.214844 257.347656 L 609.90625 580.195312 L 421.578125 564.265625 Z M 448.886719 241.417969 " clip-rule="nonzero"/></clipPath><clipPath id="9a58934e74"><path d="M 448.886719 241.417969 L 637.214844 257.347656 L 609.90625 580.195312 L 421.578125 564.265625 Z M 448.886719 241.417969 " clip-rule="nonzero"/></clipPath><clipPath id="7fd525d84a"><path d="M 265 360 L 334 360 L 334 431 L 265 431 Z M 265 360 " clip-rule="nonzero"/></clipPath><clipPath id="922a5c31c3"><path d="M 179.976562 229.796875 L 421.285156 258.425781 L 383.117188 580.167969 L 141.808594 551.542969 Z M 179.976562 229.796875 " clip-rule="nonzero"/></clipPath><clipPath id="c2f2d284ca"><path d="M 179.976562 229.796875 L 421.285156 258.425781 L 383.117188 580.167969 L 141.808594 551.542969 Z M 179.976562 229.796875 " clip-rule="nonzero"/></clipPath><clipPath id="eae1798704"><path d="M 306 362 L 335 362 L 335 394 L 306 394 Z M 306 362 " clip-rule="nonzero"/></clipPath><clipPath id="fb0e189f64"><path d="M 179.976562 229.796875 L 421.285156 258.425781 L 383.117188 580.167969 L 141.808594 551.542969 Z M 179.976562 229.796875 " clip-rule="nonzero"/></clipPath><clipPath id="633700e825"><path d="M 179.976562 229.796875 L 421.285156 258.425781 L 383.117188 580.167969 L 141.808594 551.542969 Z M 179.976562 229.796875 " clip-rule="nonzero"/></clipPath><clipPath id="5f1ca928f8"><path d="M 193 289 L 208 289 L 208 315 L 193 315 Z M 193 289 " clip-rule="nonzero"/></clipPath><clipPath id="d8636bca84"><path d="M 179.976562 229.796875 L 421.285156 258.425781 L 383.117188 580.167969 L 141.808594 551.542969 Z M 179.976562 229.796875 " clip-rule="nonzero"/></clipPath><clipPath id="ad76dc4c5b"><path d="M 179.976562 229.796875 L 421.285156 258.425781 L 383.117188 580.167969 L 141.808594 551.542969 Z M 179.976562 229.796875 " clip-rule="nonzero"/></clipPath><clipPath id="6158a1178e"><path d="M 233 260 L 252 260 L 252 320 L 233 320 Z M 233 260 " clip-rule="nonzero"/></clipPath><clipPath id="5cd883d400"><path d="M 179.976562 229.796875 L 421.285156 258.425781 L 383.117188 580.167969 L 141.808594 551.542969 Z M 179.976562 229.796875 " clip-rule="nonzero"/></clipPath><clipPath id="3b33989a26"><path d="M 179.976562 229.796875 L 421.285156 258.425781 L 383.117188 580.167969 L 141.808594 551.542969 Z M 179.976562 229.796875 " clip-rule="nonzero"/></clipPath><clipPath id="a29977bcf8"><path d="M 166 271 L 397 271 L 397 561 L 166 561 Z M 166 271 " clip-rule="nonzero"/></clipPath><clipPath id="2d3b4e762c"><path d="M 179.976562 229.796875 L 421.285156 258.425781 L 383.117188 580.167969 L 141.808594 551.542969 Z M 179.976562 229.796875 " clip-rule="nonzero"/></clipPath><clipPath id="4057663a5e"><path d="M 179.976562 229.796875 L 421.285156 258.425781 L 383.117188 580.167969 L 141.808594 551.542969 Z M 179.976562 229.796875 " clip-rule="nonzero"/></clipPath><clipPath id="d5f7103e9e"><path d="M 273 282 L 291 282 L 291 324 L 273 324 Z M 273 282 " clip-rule="nonzero"/></clipPath><clipPath id="b2cb94703d"><path d="M 179.976562 229.796875 L 421.285156 258.425781 L 383.117188 580.167969 L 141.808594 551.542969 Z M 179.976562 229.796875 " clip-rule="nonzero"/></clipPath><clipPath id="2386a862e3"><path d="M 179.976562 229.796875 L 421.285156 258.425781 L 383.117188 580.167969 L 141.808594 551.542969 Z M 179.976562 229.796875 " clip-rule="nonzero"/></clipPath><clipPath id="0e3c334725"><path d="M 187 291 L 418 291 L 418 581 L 187 581 Z M 187 291 " clip-rule="nonzero"/></clipPath><clipPath id="b443564699"><path d="M 179.976562 229.796875 L 421.285156 258.425781 L 383.117188 580.167969 L 141.808594 551.542969 Z M 179.976562 229.796875 " clip-rule="nonzero"/></clipPath><clipPath id="f1eb5f5e76"><path d="M 179.976562 229.796875 L 421.285156 258.425781 L 383.117188 580.167969 L 141.808594 551.542969 Z M 179.976562 229.796875 " clip-rule="nonzero"/></clipPath><clipPath id="b79261f348"><path d="M 146 229 L 376 229 L 376 541 L 146 541 Z M 146 229 " clip-rule="nonzero"/></clipPath><clipPath id="681d6c4c9b"><path d="M 179.976562 229.796875 L 421.285156 258.425781 L 383.117188 580.167969 L 141.808594 551.542969 Z M 179.976562 229.796875 " clip-rule="nonzero"/></clipPath><clipPath id="14e64eb2d7"><path d="M 179.976562 229.796875 L 421.285156 258.425781 L 383.117188 580.167969 L 141.808594 551.542969 Z M 179.976562 229.796875 " clip-rule="nonzero"/></clipPath></defs><g clip-path="url(#4ef733960b)"><g clip-path="url(#790c8d02e0)"><g clip-path="url(#9a0919d451)"><g clip-path="url(#71eae2f9b9)"><path fill="#000000" d="M 571.375 251.90625 C 573.816406 252.128906 576.253906 252.394531 578.683594 252.707031 C 582.523438 253.195312 586.675781 253.964844 589.238281 256.867188 C 590.089844 257.832031 590.707031 258.984375 591.207031 260.167969 C 594.097656 267.039062 592.714844 275.667969 587.371094 280.867188 C 585.074219 283.101562 581.757812 284.71875 578.691406 283.789062 C 576.550781 283.136719 574.941406 281.378906 573.621094 279.574219 C 572.515625 278.070312 571.535156 276.484375 570.550781 274.898438 C 569.722656 273.5625 568.882812 272.199219 568.46875 270.679688 C 568.050781 269.15625 568.082031 267.546875 567.871094 265.976562 C 567.390625 262.359375 565.625 259.027344 565.253906 255.390625 C 564.886719 251.777344 568.527344 251.648438 571.375 251.90625 Z M 571.375 251.90625 " fill-opacity="1" fill-rule="nonzero"/></g></g></g></g><g clip-path="url(#490808ef06)"><g clip-path="url(#ce61ad37cd)"><g clip-path="url(#64d8745cc7)"><g clip-path="url(#ea579c8922)"><path fill="#d28562" d="M 512.265625 551.292969 L 512.53125 538.476562 L 530.175781 539.96875 L 529 553.851562 L 512.394531 551.96875 M 560.175781 556.011719 L 576.785156 557.894531 L 577.957031 544.011719 L 560.3125 542.519531 L 560.050781 555.335938 M 518.652344 306.609375 L 508.789062 309.195312 C 507.378906 309.5625 505.875 309.285156 504.6875 308.429688 L 502.734375 307.023438 C 498.027344 303.632812 493.320312 300.246094 488.613281 296.855469 C 483.75 293.351562 478.890625 289.839844 474.019531 286.351562 C 471.21875 284.351562 472.371094 279.554688 470.507812 276.835938 C 469.730469 275.683594 468.546875 274.882812 467.394531 274.105469 C 466.46875 273.488281 465.546875 272.863281 464.625 272.234375 C 464.5 272.148438 464.351562 272.070312 464.21875 272.113281 C 464.105469 272.136719 464.03125 272.230469 463.980469 272.324219 C 463.519531 273.097656 463.820312 274.097656 464.210938 274.898438 C 464.746094 275.976562 465.429688 276.96875 466.253906 277.847656 C 466.929688 278.574219 467.753906 279.335938 467.800781 280.339844 C 465.375 279.035156 462.753906 278.15625 460.238281 277.011719 C 457.734375 275.867188 455.292969 274.429688 453.5625 272.289062 C 453.257812 271.898438 452.960938 271.492188 452.542969 271.246094 C 452.125 271.003906 451.523438 270.984375 451.199219 271.34375 C 450.800781 271.78125 451.003906 272.488281 451.296875 273.007812 C 451.957031 274.171875 452.917969 275.140625 453.878906 276.078125 C 455.457031 277.640625 459.023438 280.273438 458.785156 280.597656 C 458.574219 281.125 452.683594 276.84375 449.546875 275.023438 C 449.089844 274.753906 448.503906 274.515625 448.054688 274.796875 C 447.40625 275.203125 447.703125 276.214844 448.109375 276.863281 C 448.429688 277.363281 448.773438 277.851562 449.148438 278.324219 C 448.648438 277.90625 448.082031 277.574219 447.476562 277.359375 C 446.867188 277.144531 446.226562 277.625 446.316406 278.261719 C 446.449219 279.207031 446.992188 280.121094 447.59375 280.890625 C 448.683594 282.289062 450.003906 283.5 451.492188 284.449219 C 452.207031 284.910156 452.957031 285.316406 453.65625 285.800781 C 453.992188 286.035156 454.316406 286.28125 454.613281 286.5625 C 454.863281 286.796875 455.375 287.21875 455.304688 287.390625 C 455.183594 287.679688 453.816406 287.144531 453.644531 287.085938 C 450.941406 286.171875 448.898438 284.019531 446.160156 283.183594 C 446.011719 283.140625 445.839844 283.101562 445.703125 283.167969 C 445.382812 283.316406 445.453125 283.792969 445.601562 284.113281 C 446.15625 285.3125 446.988281 286.382812 448.015625 287.203125 C 449.074219 288.0625 450.316406 288.660156 451.550781 289.25 C 453.941406 290.382812 456.347656 291.519531 458.863281 292.359375 C 461.011719 293.058594 463.355469 293.648438 465.300781 294.824219 C 467.40625 296.101562 469.277344 297.910156 471.183594 299.457031 C 475.496094 302.953125 479.808594 306.449219 484.121094 309.941406 C 488.777344 313.71875 493.433594 317.492188 498.089844 321.265625 L 502.230469 324.621094 C 503.753906 325.855469 505.746094 326.355469 507.671875 325.988281 L 522.875 323.074219 Z M 518.652344 306.609375 " fill-opacity="1" fill-rule="nonzero"/></g></g></g></g><g clip-path="url(#5c88fad433)"><g clip-path="url(#1769aca917)"><g clip-path="url(#acda768f66)"><g clip-path="url(#183370d980)"><path fill="#fab610" d="M 587.625 296.875 L 594.292969 298.398438 C 602.820312 300.339844 609.902344 306.242188 613.359375 314.277344 L 622.546875 336.015625 L 603.027344 343.152344 L 595.671875 329.648438 L 591.363281 377.59375 L 537.121094 374.007812 L 540.03125 321.371094 L 520.839844 325.328125 L 515.246094 305.230469 L 532.457031 297.816406 C 538.503906 295.210938 544.984375 293.761719 551.566406 293.546875 L 563.59375 293.152344 Z M 587.625 296.875 " fill-opacity="1" fill-rule="nonzero"/></g></g></g></g><g clip-path="url(#fb8cfc15c0)"><g clip-path="url(#2967983a37)"><g clip-path="url(#56d398e2a1)"><g clip-path="url(#ed5ec14515)"><path fill="#adc7e9" d="M 591.363281 377.59375 L 592.917969 402.625 C 593.148438 406.328125 593.125 410.035156 592.851562 413.730469 L 582.839844 548.238281 L 556.375 546 L 560.863281 415.609375 L 549.480469 459.191406 C 548.230469 463.972656 547.21875 468.808594 546.445312 473.683594 L 535.269531 544.214844 L 509.800781 542.058594 L 514.070312 479.453125 C 514.714844 470.019531 516.148438 460.65625 518.355469 451.453125 L 537.179688 373.007812 Z M 591.363281 377.59375 " fill-opacity="1" fill-rule="nonzero"/></g></g></g></g><g clip-path="url(#828dffcc5b)"><g clip-path="url(#697b252f9b)"><g clip-path="url(#fe14ffa4c9)"><g clip-path="url(#51a37f4936)"><path fill="#000000" d="M 530.046875 571.679688 C 530 571.921875 529.9375 572.191406 529.730469 572.34375 C 529.53125 572.476562 529.261719 572.46875 529.015625 572.449219 C 526.242188 572.292969 523.472656 572.140625 520.699219 571.976562 C 520.007812 571.933594 519.292969 571.890625 518.695312 571.558594 C 518.101562 571.21875 517.675781 570.503906 517.941406 569.898438 C 516.371094 571.503906 513.714844 571.464844 511.398438 571.304688 C 509.15625 571.148438 506.917969 570.996094 504.675781 570.832031 C 499.566406 570.480469 494.457031 570.128906 489.34375 569.773438 C 487.226562 569.621094 485.085938 569.476562 483.027344 568.957031 C 482.796875 568.894531 482.5625 568.828125 482.398438 568.664062 C 481.902344 568.136719 482.628906 567.386719 483.292969 567.089844 C 485.074219 566.296875 487.039062 565.96875 488.953125 565.582031 C 490.789062 565.21875 492.476562 564.679688 494.179688 563.925781 C 500.660156 561.066406 506.207031 556.054688 511.128906 551.246094 L 529.875 552.019531 C 532.242188 557.949219 531.316406 565.488281 530.046875 571.679688 Z M 577.828125 575.722656 C 577.78125 575.964844 577.71875 576.234375 577.511719 576.382812 C 577.3125 576.515625 577.042969 576.511719 576.796875 576.492188 C 574.023438 576.335938 571.253906 576.179688 568.480469 576.019531 C 567.789062 575.976562 567.074219 575.933594 566.476562 575.601562 C 565.882812 575.257812 565.457031 574.542969 565.722656 573.941406 C 564.152344 575.546875 561.496094 575.503906 559.179688 575.347656 C 556.9375 575.191406 554.699219 575.039062 552.457031 574.875 C 547.347656 574.523438 542.238281 574.167969 537.125 573.816406 C 535.007812 573.664062 532.867188 573.515625 530.804688 573 C 530.578125 572.933594 530.34375 572.871094 530.179688 572.707031 C 529.683594 572.179688 530.40625 571.429688 531.074219 571.132812 C 532.855469 570.339844 534.820312 570.011719 536.734375 569.625 C 538.570312 569.261719 540.257812 568.722656 541.957031 567.96875 C 548.441406 565.109375 553.984375 560.097656 558.910156 555.289062 L 577.65625 556.0625 C 580.023438 561.988281 579.097656 569.527344 577.828125 575.722656 Z M 577.828125 575.722656 " fill-opacity="1" fill-rule="nonzero"/></g></g></g></g><g clip-path="url(#fbb60a94df)"><g clip-path="url(#daeaa670ae)"><g clip-path="url(#bcde2ba778)"><g clip-path="url(#a03b1412ca)"><path fill="#d28562" d="M 600.765625 398.980469 L 560.621094 406.851562 C 559.632812 407.046875 558.675781 406.402344 558.484375 405.414062 L 548.738281 355.65625 C 548.542969 354.667969 549.1875 353.710938 550.175781 353.519531 L 590.316406 345.644531 C 591.304688 345.449219 592.261719 346.09375 592.457031 347.082031 L 602.203125 396.839844 C 602.394531 397.828125 601.75 398.785156 600.765625 398.980469 Z M 600.765625 398.980469 " fill-opacity="1" fill-rule="nonzero"/><path fill="#adc7e9" d="M 600.765625 398.980469 L 560.621094 406.851562 C 559.632812 407.046875 558.675781 406.402344 558.484375 405.414062 L 548.738281 355.65625 C 548.542969 354.667969 549.1875 353.710938 550.175781 353.519531 L 590.316406 345.644531 C 591.304688 345.449219 592.261719 346.09375 592.457031 347.082031 L 602.203125 396.839844 C 602.394531 397.828125 601.75 398.785156 600.765625 398.980469 Z M 600.765625 398.980469 " fill-opacity="0.549" fill-rule="nonzero"/></g></g></g></g><g clip-path="url(#071a523b44)"><g clip-path="url(#4dad96bc6b)"><g clip-path="url(#883cbf2ff6)"><g clip-path="url(#cc2da61cc5)"><path fill="#009684" d="M 599.265625 396.476562 L 561.066406 403.972656 L 551.671875 356.019531 L 589.875 348.527344 Z M 599.265625 396.476562 " fill-opacity="1" fill-rule="nonzero"/></g></g></g></g><g clip-path="url(#e5ca1b23a0)"><g clip-path="url(#bf3c898ef4)"><g clip-path="url(#3edb8ac8ca)"><g clip-path="url(#c08e372ffe)"><path fill="#adc7e9" d="M 578.886719 348.308594 L 573.695312 348.015625 C 573.238281 347.992188 572.859375 347.671875 572.773438 347.242188 C 572.476562 345.722656 570.949219 344.742188 569.359375 345.054688 C 567.769531 345.367188 566.722656 346.851562 567.023438 348.371094 C 567.105469 348.800781 566.875 349.238281 566.460938 349.4375 L 561.761719 351.667969 C 560.832031 352.109375 560.3125 353.09375 560.503906 354.066406 L 560.90625 356.113281 L 581.359375 352.101562 L 580.960938 350.054688 C 580.769531 349.082031 579.917969 348.367188 578.886719 348.308594 Z M 570.054688 348.605469 C 569.460938 348.722656 568.882812 348.335938 568.765625 347.738281 C 568.648438 347.144531 569.039062 346.566406 569.632812 346.449219 C 570.226562 346.332031 570.804688 346.722656 570.921875 347.316406 C 571.039062 347.914062 570.648438 348.492188 570.054688 348.605469 Z M 570.054688 348.605469 " fill-opacity="1" fill-rule="nonzero"/></g></g></g></g><g clip-path="url(#98f5bb03bc)"><g clip-path="url(#bec75802db)"><g clip-path="url(#da836f52ef)"><g clip-path="url(#10d56cedc7)"><path fill="#d28562" d="M 570.867188 260.691406 C 571.84375 261.816406 572.820312 263.058594 573.007812 264.535156 C 573.113281 265.339844 572.972656 266.148438 572.835938 266.945312 C 572.449219 269.152344 572.222656 271.699219 571.839844 273.902344 L 573.730469 274.113281 C 574.09375 272.742188 574.589844 271.328125 575.660156 270.398438 C 576.730469 269.472656 578.53125 269.253906 579.503906 270.28125 C 580.523438 271.359375 580.167969 273.105469 579.644531 274.496094 C 579.3125 275.378906 578.921875 276.273438 578.261719 276.949219 C 577.925781 277.292969 577.519531 277.582031 577.308594 278.011719 C 576.949219 278.734375 577.253906 279.617188 577.738281 280.261719 C 579.171875 282.171875 581.582031 282.773438 583.96875 282.820312 L 582.644531 294.785156 C 582.644531 294.785156 587.625 296.875 587.625 296.875 C 587.28125 296.789062 585.066406 298.046875 584.578125 298.304688 C 583.472656 298.894531 582.320312 299.242188 581.191406 299.753906 C 576.332031 301.945312 570.375 301.640625 566.324219 297.945312 C 565.488281 297.179688 564.824219 296.359375 564.316406 295.359375 C 564.230469 295.1875 563.195312 293.195312 563.59375 293.152344 C 563.597656 293.152344 567.601562 292.757812 567.601562 292.757812 C 567.601562 292.757812 568.402344 289.703125 567.714844 288.292969 C 567.210938 287.261719 565.976562 286.804688 564.832031 286.699219 C 563.6875 286.59375 562.511719 286.734375 561.398438 286.453125 C 558.828125 285.800781 557.238281 282.621094 558.265625 280.171875 C 560.308594 279.871094 562.203125 278.664062 563.335938 276.9375 C 561.535156 276.730469 559.738281 276.523438 557.941406 276.316406 C 558.007812 275.6875 558.078125 275.058594 558.144531 274.429688 C 558.164062 274.269531 558.175781 274.089844 558.082031 273.957031 C 557.980469 273.820312 557.796875 273.78125 557.632812 273.738281 C 556.929688 273.550781 556.292969 273.117188 555.863281 272.53125 C 555.789062 272.429688 555.71875 272.316406 555.726562 272.195312 C 555.742188 271.929688 556.074219 271.832031 556.328125 271.757812 C 557.558594 271.410156 558.378906 270.210938 558.722656 268.976562 C 559.0625 267.742188 559.023438 266.441406 559.144531 265.167969 C 559.617188 260.199219 562.75 255.527344 567.234375 253.339844 C 567.257812 255.980469 569.140625 258.691406 570.867188 260.691406 Z M 627.109375 354.367188 L 620.679688 336.386719 L 605.347656 341.9375 L 609.648438 352.023438 C 610.152344 353.207031 609.792969 354.582031 608.785156 355.363281 C 606.976562 356.890625 604.964844 358.230469 603.074219 359.652344 C 597.527344 363.808594 594.035156 366.304688 588.542969 370.660156 C 587.542969 371.453125 584.5 373.859375 583.179688 373.914062 C 581.78125 373.972656 580.414062 373.414062 579.019531 373.386719 C 577.976562 373.363281 576.9375 373.59375 575.886719 373.59375 C 573.890625 373.589844 572 372.726562 570.039062 372.296875 C 569.695312 372.222656 569.316406 372.171875 569.035156 372.367188 C 568.523438 372.71875 568.730469 373.523438 569.105469 374.019531 C 570.074219 375.285156 571.671875 375.847656 573.089844 376.582031 C 573.351562 376.714844 573.648438 376.96875 573.519531 377.234375 C 573.449219 377.371094 573.304688 377.433594 573.15625 377.476562 C 570.015625 378.550781 566.703125 379.101562 563.390625 379.109375 C 562.480469 379.121094 561.550781 379.085938 560.707031 379.417969 C 560.527344 379.480469 560.34375 379.574219 560.253906 379.742188 C 560.007812 380.195312 560.550781 380.644531 561.015625 380.839844 C 563.863281 382.066406 567.015625 382.378906 570.105469 382.683594 C 567.886719 383.261719 565.636719 383.675781 563.355469 383.921875 C 562.625 383.992188 560.5 384.085938 560.296875 385.046875 C 560.203125 385.523438 560.617188 385.796875 561.003906 385.917969 C 561.390625 386.027344 561.84375 386.109375 562.042969 386.445312 C 562 386.460938 561.964844 386.480469 561.917969 386.511719 C 560.941406 387.03125 561.035156 388.53125 562.089844 388.882812 C 562.855469 389.148438 563.753906 389.167969 564.578125 389.148438 C 567.269531 389.09375 569.953125 389.042969 572.644531 388.988281 C 571.015625 389.574219 569.394531 390.171875 567.765625 390.769531 C 567.347656 390.921875 565.796875 391.722656 566.503906 392.332031 C 567.433594 393.132812 569.234375 392.34375 570.203125 392.050781 C 575.214844 390.53125 580.148438 388.691406 584.78125 386.222656 C 589.339844 383.792969 593.777344 381.136719 598.355469 378.730469 C 601.75 376.945312 605.144531 375.160156 608.542969 373.375 C 613.21875 370.914062 617.894531 368.457031 622.574219 365.996094 C 626.773438 363.785156 628.707031 358.824219 627.109375 354.367188 Z M 627.109375 354.367188 " fill-opacity="1" fill-rule="nonzero"/></g></g></g></g><g clip-path="url(#d4b519e603)"><g clip-path="url(#758ecc4791)"><g clip-path="url(#373a1b53d7)"><g clip-path="url(#ceb65a55b8)"><path fill="#000000" d="M 594.828125 324.316406 C 594.636719 317.644531 596.398438 310.570312 601.234375 305.972656 C 599.253906 312.039062 596.617188 318.191406 594.828125 324.316406 Z M 588.089844 401.464844 L 575.722656 547.636719 M 588.648438 401.355469 L 587.53125 401.574219 L 575.179688 547.589844 L 576.269531 547.683594 Z M 588.648438 401.355469 " fill-opacity="0.1765" fill-rule="nonzero"/></g></g></g></g><g clip-path="url(#c3243d943a)"><g clip-path="url(#26e4b6cb4e)"><g clip-path="url(#33b3cf6032)"><g clip-path="url(#9a58934e74)"><path fill="#000000" d="M 562.453125 268.332031 C 562.363281 269.128906 561.941406 269.734375 561.511719 269.6875 C 561.078125 269.640625 560.796875 268.953125 560.886719 268.15625 C 560.976562 267.359375 561.398438 266.75 561.828125 266.800781 C 562.261719 266.847656 562.542969 267.53125 562.453125 268.332031 Z M 561.339844 264.960938 C 560.980469 265.09375 560.597656 265.417969 560.476562 265.78125 C 561.546875 265.257812 562.816406 265.164062 563.953125 265.523438 C 563.191406 264.890625 562.265625 264.617188 561.339844 264.960938 Z M 561.339844 264.960938 " fill-opacity="1" fill-rule="nonzero"/></g></g></g></g><g clip-path="url(#7fd525d84a)"><g clip-path="url(#922a5c31c3)"><g clip-path="url(#c2f2d284ca)"><path fill="#c92228" d="M 294.386719 394.851562 L 298.421875 360.867188 C 281.832031 361.683594 267.71875 374.398438 265.695312 391.449219 C 263.441406 410.457031 277.050781 427.753906 296.039062 430.007812 C 313.066406 432.027344 328.71875 421.261719 333.390625 405.304688 L 299.445312 401.28125 C 296.277344 400.902344 294.011719 398.027344 294.386719 394.851562 Z M 294.386719 394.851562 " fill-opacity="1" fill-rule="nonzero"/></g></g></g><g clip-path="url(#eae1798704)"><g clip-path="url(#fb0e189f64)"><g clip-path="url(#633700e825)"><path fill="#c92228" d="M 309.898438 362.230469 L 306.546875 390.46875 L 334.753906 393.816406 C 334.035156 379.117188 324.003906 366.367188 309.898438 362.230469 Z M 309.898438 362.230469 " fill-opacity="1" fill-rule="nonzero"/></g></g></g><g clip-path="url(#5f1ca928f8)"><g clip-path="url(#d8636bca84)"><g clip-path="url(#ad76dc4c5b)"><path fill="#c92228" d="M 196.261719 289.992188 L 207.738281 291.355469 L 205.011719 314.335938 L 193.535156 312.972656 Z M 196.261719 289.992188 " fill-opacity="1" fill-rule="nonzero"/></g></g></g><g clip-path="url(#6158a1178e)"><g clip-path="url(#5cd883d400)"><g clip-path="url(#3b33989a26)"><path fill="#c92228" d="M 240.519531 260.285156 L 252 261.644531 L 245.183594 319.101562 L 233.707031 317.738281 Z M 240.519531 260.285156 " fill-opacity="1" fill-rule="nonzero"/></g></g></g><g clip-path="url(#a29977bcf8)"><g clip-path="url(#2d3b4e762c)"><g clip-path="url(#4057663a5e)"><path fill="#c92228" d="M 396.140625 272.921875 L 384.664062 271.558594 L 351.949219 547.339844 C 351.574219 550.511719 348.699219 552.78125 345.53125 552.402344 L 167.636719 531.300781 L 166.953125 537.046875 L 362.0625 560.191406 Z M 396.140625 272.921875 " fill-opacity="1" fill-rule="nonzero"/></g></g></g><g clip-path="url(#d5f7103e9e)"><g clip-path="url(#b2cb94703d)"><g clip-path="url(#2386a862e3)"><path fill="#c92228" d="M 278.644531 282.285156 L 290.121094 283.648438 L 285.351562 323.867188 L 273.875 322.503906 Z M 278.644531 282.285156 " fill-opacity="1" fill-rule="nonzero"/></g></g></g><g clip-path="url(#0e3c334725)"><g clip-path="url(#b443564699)"><g clip-path="url(#f1eb5f5e76)"><path fill="#c92228" d="M 405.574219 291.519531 L 372.859375 567.296875 C 372.480469 570.472656 369.609375 572.738281 366.4375 572.363281 L 188.542969 551.257812 L 187.863281 557.003906 L 382.972656 580.152344 L 417.050781 292.878906 Z M 405.574219 291.519531 " fill-opacity="1" fill-rule="nonzero"/></g></g></g><g clip-path="url(#b79261f348)"><g clip-path="url(#681d6c4c9b)"><g clip-path="url(#14e64eb2d7)"><path fill="#c92228" d="M 375.234375 252.960938 L 180.125 229.816406 L 146.042969 517.085938 L 341.152344 540.230469 Z M 267.851562 275.179688 C 268.226562 272.007812 271.101562 269.738281 274.269531 270.113281 L 297.222656 272.839844 C 300.394531 273.214844 302.65625 276.089844 302.28125 279.265625 L 296.148438 330.972656 C 295.769531 334.144531 292.894531 336.414062 289.726562 336.039062 L 266.773438 333.316406 C 263.605469 332.9375 261.339844 330.0625 261.714844 326.886719 Z M 229.726562 253.179688 C 230.101562 250.003906 232.976562 247.738281 236.144531 248.113281 L 259.101562 250.835938 C 262.269531 251.210938 264.53125 254.089844 264.15625 257.261719 L 255.976562 326.207031 C 255.601562 329.378906 252.726562 331.648438 249.558594 331.273438 L 226.605469 328.550781 C 223.433594 328.171875 221.171875 325.296875 221.546875 322.125 Z M 246.148438 360 C 245.773438 363.171875 242.898438 365.441406 239.730469 365.0625 L 205.296875 360.980469 C 202.128906 360.605469 199.863281 357.726562 200.242188 354.554688 C 200.617188 351.378906 203.492188 349.113281 206.660156 349.488281 L 241.09375 353.574219 C 244.261719 353.949219 246.527344 356.828125 246.148438 360 Z M 185.464844 282.886719 C 185.84375 279.710938 188.71875 277.445312 191.886719 277.820312 L 214.839844 280.542969 C 218.007812 280.917969 220.273438 283.796875 219.898438 286.96875 L 215.808594 321.441406 C 215.433594 324.613281 212.558594 326.882812 209.386719 326.507812 L 186.433594 323.785156 C 183.265625 323.40625 181 320.53125 181.378906 317.359375 Z M 180.980469 369.746094 L 238.367188 376.554688 C 241.535156 376.929688 243.800781 379.808594 243.421875 382.980469 C 243.046875 386.152344 240.171875 388.421875 237.003906 388.046875 L 179.617188 381.238281 C 176.449219 380.863281 174.183594 377.984375 174.5625 374.8125 C 174.9375 371.640625 177.8125 369.371094 180.980469 369.746094 Z M 178.253906 392.730469 L 235.640625 399.535156 C 238.808594 399.914062 241.074219 402.789062 240.695312 405.960938 C 240.320312 409.136719 237.445312 411.402344 234.277344 411.027344 L 176.890625 404.21875 C 173.722656 403.84375 171.457031 400.964844 171.835938 397.792969 C 172.210938 394.621094 175.085938 392.351562 178.253906 392.730469 Z M 175.527344 415.710938 L 215.699219 420.476562 C 218.867188 420.851562 221.132812 423.730469 220.753906 426.902344 C 220.378906 430.074219 217.503906 432.34375 214.335938 431.96875 L 174.164062 427.203125 C 170.996094 426.824219 168.730469 423.949219 169.109375 420.777344 C 169.484375 417.601562 172.359375 415.335938 175.527344 415.710938 Z M 249.734375 476.949219 C 249.355469 480.125 246.484375 482.390625 243.3125 482.015625 C 240.144531 481.640625 237.878906 478.761719 238.257812 475.589844 L 238.65625 472.222656 L 223.933594 483.835938 C 221.980469 485.378906 219.261719 485.492188 217.183594 484.125 L 200.421875 473.089844 L 182.292969 500.6875 C 181.089844 502.519531 178.957031 503.511719 176.78125 503.253906 C 174.609375 502.996094 172.765625 501.53125 172.027344 499.46875 L 163.277344 475.125 C 162.195312 472.121094 163.753906 468.804688 166.757812 467.722656 C 169.761719 466.640625 173.070312 468.199219 174.152344 471.203125 L 178.988281 484.660156 L 193.941406 461.898438 C 195.695312 459.230469 199.277344 458.488281 201.945312 460.242188 L 220.054688 472.167969 L 231.503906 463.136719 L 228.144531 462.738281 C 224.972656 462.359375 222.710938 459.484375 223.085938 456.308594 C 223.460938 453.136719 226.335938 450.871094 229.507812 451.246094 L 246.722656 453.289062 C 249.890625 453.664062 252.15625 456.542969 251.777344 459.714844 Z M 326.664062 515.207031 L 263.542969 507.71875 C 260.371094 507.34375 258.109375 504.464844 258.484375 501.292969 C 258.859375 498.121094 261.734375 495.851562 264.90625 496.230469 L 328.027344 503.71875 C 331.195312 504.09375 333.460938 506.96875 333.085938 510.144531 C 332.707031 513.316406 329.832031 515.582031 326.664062 515.207031 Z M 329.390625 492.226562 L 266.265625 484.738281 C 263.097656 484.363281 260.835938 481.484375 261.210938 478.3125 C 261.585938 475.140625 264.460938 472.871094 267.628906 473.246094 L 330.753906 480.734375 C 333.921875 481.113281 336.1875 483.988281 335.8125 487.160156 C 335.433594 490.335938 332.558594 492.601562 329.390625 492.226562 Z M 332.117188 469.246094 L 291.949219 464.480469 C 288.777344 464.101562 286.515625 461.226562 286.890625 458.054688 C 287.265625 454.878906 290.140625 452.613281 293.3125 452.988281 L 333.480469 457.753906 C 336.648438 458.128906 338.914062 461.007812 338.539062 464.179688 C 338.160156 467.351562 335.285156 469.621094 332.117188 469.246094 Z M 294.675781 441.496094 C 269.359375 438.496094 251.210938 415.433594 254.21875 390.089844 C 257.226562 364.742188 280.265625 346.566406 305.578125 349.570312 C 330.894531 352.574219 349.042969 375.636719 346.035156 400.980469 C 343.027344 426.324219 319.988281 444.5 294.675781 441.496094 Z M 347.113281 342.84375 L 312.679688 338.761719 C 309.511719 338.382812 307.246094 335.507812 307.625 332.335938 C 308 329.160156 310.875 326.894531 314.042969 327.269531 L 348.476562 331.355469 C 351.644531 331.730469 353.910156 334.609375 353.53125 337.78125 C 353.15625 340.953125 350.28125 343.222656 347.113281 342.84375 Z M 349.839844 319.863281 L 315.40625 315.777344 C 312.238281 315.402344 309.972656 312.527344 310.351562 309.351562 C 310.726562 306.179688 313.601562 303.914062 316.769531 304.289062 L 351.203125 308.371094 C 354.371094 308.75 356.636719 311.625 356.257812 314.800781 C 355.882812 317.972656 353.007812 320.238281 349.839844 319.863281 Z M 352.566406 296.882812 L 318.132812 292.796875 C 314.964844 292.421875 312.699219 289.542969 313.078125 286.371094 C 313.453125 283.199219 316.328125 280.929688 319.496094 281.304688 L 353.929688 285.390625 C 357.097656 285.765625 359.363281 288.644531 358.984375 291.816406 C 358.609375 294.988281 355.734375 297.257812 352.566406 296.882812 Z M 355.292969 273.898438 L 338.074219 271.859375 C 334.90625 271.480469 332.640625 268.605469 333.019531 265.429688 C 333.394531 262.257812 336.269531 259.992188 339.4375 260.367188 L 356.65625 262.410156 C 359.824219 262.785156 362.085938 265.664062 361.710938 268.835938 C 361.335938 272.007812 358.460938 274.277344 355.292969 273.898438 Z M 355.292969 273.898438 " fill-opacity="1" fill-rule="nonzero"/></g></g></g></svg>